<mxfile host="app.diagrams.net" agent="Mozilla/5.0 (Windows NT 10.0; Win64; x64) AppleWebKit/537.36 (KHTML, like Gecko) Chrome/128.0.0.0 Safari/537.36" version="24.7.14">
  <diagram name="PÃ¡gina-1" id="n8yrIoDQ9Keg4iRM9nwX">
    <mxGraphModel grid="1" page="1" gridSize="10" guides="1" tooltips="1" connect="1" arrows="1" fold="1" pageScale="1" pageWidth="827" pageHeight="1169" math="0" shadow="0">
      <root>
        <mxCell id="0" />
        <mxCell id="1" parent="0" />
        <mxCell id="Tix6R_WVMBDP0qrC90Un-5" value="" style="edgeStyle=orthogonalEdgeStyle;rounded=0;orthogonalLoop=1;jettySize=auto;html=1;" edge="1" parent="1" source="Tix6R_WVMBDP0qrC90Un-3">
          <mxGeometry relative="1" as="geometry">
            <mxPoint x="290" y="140" as="targetPoint" />
          </mxGeometry>
        </mxCell>
        <mxCell id="Tix6R_WVMBDP0qrC90Un-3" value="Client enter to the&lt;div&gt;SLI app&lt;/div&gt;" style="rounded=1;whiteSpace=wrap;html=1;" vertex="1" parent="1">
          <mxGeometry x="70" y="110" width="120" height="60" as="geometry" />
        </mxCell>
        <mxCell id="Tix6R_WVMBDP0qrC90Un-9" value="" style="edgeStyle=orthogonalEdgeStyle;rounded=0;orthogonalLoop=1;jettySize=auto;html=1;" edge="1" parent="1" source="Tix6R_WVMBDP0qrC90Un-7" target="Tix6R_WVMBDP0qrC90Un-8">
          <mxGeometry relative="1" as="geometry" />
        </mxCell>
        <mxCell id="Tix6R_WVMBDP0qrC90Un-7" value="" style="strokeWidth=2;html=1;shape=mxgraph.flowchart.start_2;whiteSpace=wrap;" vertex="1" parent="1">
          <mxGeometry x="290" y="122.5" width="40" height="35" as="geometry" />
        </mxCell>
        <mxCell id="Tix6R_WVMBDP0qrC90Un-11" value="" style="edgeStyle=orthogonalEdgeStyle;rounded=0;orthogonalLoop=1;jettySize=auto;html=1;" edge="1" parent="1" source="Tix6R_WVMBDP0qrC90Un-8" target="Tix6R_WVMBDP0qrC90Un-10">
          <mxGeometry relative="1" as="geometry" />
        </mxCell>
        <mxCell id="Tix6R_WVMBDP0qrC90Un-8" value="Select an option from the menu&amp;nbsp;&lt;br&gt;=int" style="whiteSpace=wrap;html=1;strokeWidth=2;" vertex="1" parent="1">
          <mxGeometry x="250" y="230" width="120" height="60" as="geometry" />
        </mxCell>
        <mxCell id="Tix6R_WVMBDP0qrC90Un-13" value="" style="edgeStyle=orthogonalEdgeStyle;rounded=0;orthogonalLoop=1;jettySize=auto;html=1;" edge="1" parent="1" source="Tix6R_WVMBDP0qrC90Un-10" target="Tix6R_WVMBDP0qrC90Un-12">
          <mxGeometry relative="1" as="geometry" />
        </mxCell>
        <mxCell id="Tix6R_WVMBDP0qrC90Un-14" value="No" style="edgeLabel;html=1;align=center;verticalAlign=middle;resizable=0;points=[];" connectable="0" vertex="1" parent="Tix6R_WVMBDP0qrC90Un-13">
          <mxGeometry x="-0.0519" y="-3" relative="1" as="geometry">
            <mxPoint y="1" as="offset" />
          </mxGeometry>
        </mxCell>
        <mxCell id="Tix6R_WVMBDP0qrC90Un-17" value="" style="edgeStyle=orthogonalEdgeStyle;rounded=0;orthogonalLoop=1;jettySize=auto;html=1;" edge="1" parent="1" source="Tix6R_WVMBDP0qrC90Un-10" target="Tix6R_WVMBDP0qrC90Un-16">
          <mxGeometry relative="1" as="geometry" />
        </mxCell>
        <mxCell id="Tix6R_WVMBDP0qrC90Un-18" value="Yes" style="edgeLabel;html=1;align=center;verticalAlign=middle;resizable=0;points=[];" connectable="0" vertex="1" parent="Tix6R_WVMBDP0qrC90Un-17">
          <mxGeometry x="-0.1814" y="-2" relative="1" as="geometry">
            <mxPoint as="offset" />
          </mxGeometry>
        </mxCell>
        <mxCell id="Tix6R_WVMBDP0qrC90Un-10" value="Correct selection" style="rhombus;whiteSpace=wrap;html=1;strokeWidth=2;" vertex="1" parent="1">
          <mxGeometry x="255" y="340" width="110" height="115" as="geometry" />
        </mxCell>
        <mxCell id="Tix6R_WVMBDP0qrC90Un-12" value="Invalid option" style="whiteSpace=wrap;html=1;strokeWidth=2;" vertex="1" parent="1">
          <mxGeometry x="500" y="367.5" width="120" height="60" as="geometry" />
        </mxCell>
        <mxCell id="Tix6R_WVMBDP0qrC90Un-15" value="" style="endArrow=classic;html=1;rounded=0;exitX=0.417;exitY=0.042;exitDx=0;exitDy=0;exitPerimeter=0;entryX=1;entryY=0.5;entryDx=0;entryDy=0;" edge="1" parent="1" source="Tix6R_WVMBDP0qrC90Un-12" target="Tix6R_WVMBDP0qrC90Un-8">
          <mxGeometry width="50" height="50" relative="1" as="geometry">
            <mxPoint x="560" y="367.5" as="sourcePoint" />
            <mxPoint x="610" y="317.5" as="targetPoint" />
            <Array as="points">
              <mxPoint x="550" y="260" />
            </Array>
          </mxGeometry>
        </mxCell>
        <mxCell id="Tix6R_WVMBDP0qrC90Un-35" value="" style="edgeStyle=orthogonalEdgeStyle;rounded=0;orthogonalLoop=1;jettySize=auto;html=1;" edge="1" parent="1" source="Tix6R_WVMBDP0qrC90Un-16">
          <mxGeometry relative="1" as="geometry">
            <mxPoint x="310" y="640" as="targetPoint" />
          </mxGeometry>
        </mxCell>
        <mxCell id="Tix6R_WVMBDP0qrC90Un-16" value="Show categories&lt;div&gt;menu&lt;/div&gt;" style="rounded=1;whiteSpace=wrap;html=1;strokeWidth=2;" vertex="1" parent="1">
          <mxGeometry x="250" y="510" width="120" height="60" as="geometry" />
        </mxCell>
        <mxCell id="Tix6R_WVMBDP0qrC90Un-19" value="" style="edgeStyle=orthogonalEdgeStyle;rounded=0;orthogonalLoop=1;jettySize=auto;html=1;" edge="1" parent="1" source="Tix6R_WVMBDP0qrC90Un-20">
          <mxGeometry relative="1" as="geometry">
            <mxPoint x="1200" y="130" as="targetPoint" />
          </mxGeometry>
        </mxCell>
        <mxCell id="Tix6R_WVMBDP0qrC90Un-20" value="Client enter to the&lt;div&gt;SLI app&lt;/div&gt;" style="rounded=1;whiteSpace=wrap;html=1;" vertex="1" parent="1">
          <mxGeometry x="980" y="100" width="120" height="60" as="geometry" />
        </mxCell>
        <mxCell id="Tix6R_WVMBDP0qrC90Un-21" value="" style="edgeStyle=orthogonalEdgeStyle;rounded=0;orthogonalLoop=1;jettySize=auto;html=1;" edge="1" parent="1" source="Tix6R_WVMBDP0qrC90Un-22" target="Tix6R_WVMBDP0qrC90Un-24">
          <mxGeometry relative="1" as="geometry" />
        </mxCell>
        <mxCell id="Tix6R_WVMBDP0qrC90Un-22" value="" style="strokeWidth=2;html=1;shape=mxgraph.flowchart.start_2;whiteSpace=wrap;" vertex="1" parent="1">
          <mxGeometry x="1200" y="112.5" width="40" height="35" as="geometry" />
        </mxCell>
        <mxCell id="Tix6R_WVMBDP0qrC90Un-23" value="" style="edgeStyle=orthogonalEdgeStyle;rounded=0;orthogonalLoop=1;jettySize=auto;html=1;" edge="1" parent="1" source="Tix6R_WVMBDP0qrC90Un-24" target="Tix6R_WVMBDP0qrC90Un-29">
          <mxGeometry relative="1" as="geometry" />
        </mxCell>
        <mxCell id="Tix6R_WVMBDP0qrC90Un-24" value="Select an option from the menu&amp;nbsp;&lt;br&gt;=int" style="whiteSpace=wrap;html=1;strokeWidth=2;" vertex="1" parent="1">
          <mxGeometry x="1160" y="220" width="120" height="60" as="geometry" />
        </mxCell>
        <mxCell id="Tix6R_WVMBDP0qrC90Un-25" value="" style="edgeStyle=orthogonalEdgeStyle;rounded=0;orthogonalLoop=1;jettySize=auto;html=1;" edge="1" parent="1" source="Tix6R_WVMBDP0qrC90Un-29" target="Tix6R_WVMBDP0qrC90Un-30">
          <mxGeometry relative="1" as="geometry" />
        </mxCell>
        <mxCell id="Tix6R_WVMBDP0qrC90Un-26" value="No" style="edgeLabel;html=1;align=center;verticalAlign=middle;resizable=0;points=[];" connectable="0" vertex="1" parent="Tix6R_WVMBDP0qrC90Un-25">
          <mxGeometry x="-0.0519" y="-3" relative="1" as="geometry">
            <mxPoint y="1" as="offset" />
          </mxGeometry>
        </mxCell>
        <mxCell id="Tix6R_WVMBDP0qrC90Un-27" value="" style="edgeStyle=orthogonalEdgeStyle;rounded=0;orthogonalLoop=1;jettySize=auto;html=1;" edge="1" parent="1" source="Tix6R_WVMBDP0qrC90Un-29" target="Tix6R_WVMBDP0qrC90Un-32">
          <mxGeometry relative="1" as="geometry" />
        </mxCell>
        <mxCell id="Tix6R_WVMBDP0qrC90Un-28" value="Yes" style="edgeLabel;html=1;align=center;verticalAlign=middle;resizable=0;points=[];" connectable="0" vertex="1" parent="Tix6R_WVMBDP0qrC90Un-27">
          <mxGeometry x="-0.1814" y="-2" relative="1" as="geometry">
            <mxPoint as="offset" />
          </mxGeometry>
        </mxCell>
        <mxCell id="Tix6R_WVMBDP0qrC90Un-29" value="Correct selection" style="rhombus;whiteSpace=wrap;html=1;strokeWidth=2;" vertex="1" parent="1">
          <mxGeometry x="1165" y="330" width="110" height="115" as="geometry" />
        </mxCell>
        <mxCell id="Tix6R_WVMBDP0qrC90Un-30" value="Invalid option" style="whiteSpace=wrap;html=1;strokeWidth=2;" vertex="1" parent="1">
          <mxGeometry x="1410" y="357.5" width="120" height="60" as="geometry" />
        </mxCell>
        <mxCell id="Tix6R_WVMBDP0qrC90Un-31" value="" style="endArrow=classic;html=1;rounded=0;exitX=0.417;exitY=0.042;exitDx=0;exitDy=0;exitPerimeter=0;entryX=1;entryY=0.5;entryDx=0;entryDy=0;" edge="1" parent="1" source="Tix6R_WVMBDP0qrC90Un-30" target="Tix6R_WVMBDP0qrC90Un-24">
          <mxGeometry width="50" height="50" relative="1" as="geometry">
            <mxPoint x="1470" y="357.5" as="sourcePoint" />
            <mxPoint x="1520" y="307.5" as="targetPoint" />
            <Array as="points">
              <mxPoint x="1460" y="250" />
            </Array>
          </mxGeometry>
        </mxCell>
        <mxCell id="Tix6R_WVMBDP0qrC90Un-40" value="" style="edgeStyle=orthogonalEdgeStyle;rounded=0;orthogonalLoop=1;jettySize=auto;html=1;" edge="1" parent="1" source="Tix6R_WVMBDP0qrC90Un-32" target="Tix6R_WVMBDP0qrC90Un-39">
          <mxGeometry relative="1" as="geometry" />
        </mxCell>
        <mxCell id="Tix6R_WVMBDP0qrC90Un-32" value="Select a right category" style="rounded=1;whiteSpace=wrap;html=1;strokeWidth=2;" vertex="1" parent="1">
          <mxGeometry x="1160" y="500" width="120" height="60" as="geometry" />
        </mxCell>
        <mxCell id="Tix6R_WVMBDP0qrC90Un-33" value="&lt;font style=&quot;font-size: 18px;&quot;&gt;Fist activity: Menu Categories&lt;/font&gt;" style="whiteSpace=wrap;html=1;" vertex="1" parent="1">
          <mxGeometry x="20" y="20" width="330" height="60" as="geometry" />
        </mxCell>
        <mxCell id="Tix6R_WVMBDP0qrC90Un-37" value="" style="strokeWidth=2;html=1;shape=mxgraph.flowchart.start_2;whiteSpace=wrap;" vertex="1" parent="1">
          <mxGeometry x="290" y="630" width="40" height="35" as="geometry" />
        </mxCell>
        <mxCell id="Tix6R_WVMBDP0qrC90Un-38" value="&lt;font style=&quot;font-size: 18px;&quot;&gt;Second activity: Menu products by category&lt;/font&gt;" style="whiteSpace=wrap;html=1;" vertex="1" parent="1">
          <mxGeometry x="859" y="20" width="330" height="60" as="geometry" />
        </mxCell>
        <mxCell id="Tix6R_WVMBDP0qrC90Un-44" value="" style="edgeStyle=orthogonalEdgeStyle;rounded=0;orthogonalLoop=1;jettySize=auto;html=1;" edge="1" parent="1" source="Tix6R_WVMBDP0qrC90Un-39" target="Tix6R_WVMBDP0qrC90Un-41">
          <mxGeometry relative="1" as="geometry" />
        </mxCell>
        <mxCell id="Tix6R_WVMBDP0qrC90Un-45" value="no" style="edgeLabel;html=1;align=center;verticalAlign=middle;resizable=0;points=[];" connectable="0" vertex="1" parent="Tix6R_WVMBDP0qrC90Un-44">
          <mxGeometry x="0.0727" y="-3" relative="1" as="geometry">
            <mxPoint as="offset" />
          </mxGeometry>
        </mxCell>
        <mxCell id="Tix6R_WVMBDP0qrC90Un-47" value="" style="edgeStyle=orthogonalEdgeStyle;rounded=0;orthogonalLoop=1;jettySize=auto;html=1;" edge="1" parent="1" source="Tix6R_WVMBDP0qrC90Un-39" target="Tix6R_WVMBDP0qrC90Un-46">
          <mxGeometry relative="1" as="geometry" />
        </mxCell>
        <mxCell id="Tix6R_WVMBDP0qrC90Un-48" value="yes" style="edgeLabel;html=1;align=center;verticalAlign=middle;resizable=0;points=[];" connectable="0" vertex="1" parent="Tix6R_WVMBDP0qrC90Un-47">
          <mxGeometry x="-0.0791" y="2" relative="1" as="geometry">
            <mxPoint y="1" as="offset" />
          </mxGeometry>
        </mxCell>
        <mxCell id="Tix6R_WVMBDP0qrC90Un-39" value="Correct selection" style="rhombus;whiteSpace=wrap;html=1;strokeWidth=2;" vertex="1" parent="1">
          <mxGeometry x="964" y="472.5" width="110" height="115" as="geometry" />
        </mxCell>
        <mxCell id="Tix6R_WVMBDP0qrC90Un-41" value="Invalid option" style="whiteSpace=wrap;html=1;strokeWidth=2;" vertex="1" parent="1">
          <mxGeometry x="959" y="357.5" width="120" height="60" as="geometry" />
        </mxCell>
        <mxCell id="Tix6R_WVMBDP0qrC90Un-43" value="" style="endArrow=classic;html=1;rounded=0;exitX=0.5;exitY=0;exitDx=0;exitDy=0;entryX=-0.025;entryY=0.4;entryDx=0;entryDy=0;entryPerimeter=0;" edge="1" parent="1" source="Tix6R_WVMBDP0qrC90Un-41" target="Tix6R_WVMBDP0qrC90Un-24">
          <mxGeometry width="50" height="50" relative="1" as="geometry">
            <mxPoint x="1150" y="420" as="sourcePoint" />
            <mxPoint x="1200" y="370" as="targetPoint" />
            <Array as="points">
              <mxPoint x="1020" y="244" />
            </Array>
          </mxGeometry>
        </mxCell>
        <mxCell id="Tix6R_WVMBDP0qrC90Un-50" value="" style="edgeStyle=orthogonalEdgeStyle;rounded=0;orthogonalLoop=1;jettySize=auto;html=1;" edge="1" parent="1" source="Tix6R_WVMBDP0qrC90Un-46" target="Tix6R_WVMBDP0qrC90Un-49">
          <mxGeometry relative="1" as="geometry" />
        </mxCell>
        <mxCell id="Tix6R_WVMBDP0qrC90Un-46" value="Show menu from the&amp;nbsp;&lt;div&gt;category selected&lt;/div&gt;" style="whiteSpace=wrap;html=1;strokeWidth=2;" vertex="1" parent="1">
          <mxGeometry x="959" y="665" width="120" height="60" as="geometry" />
        </mxCell>
        <mxCell id="Tix6R_WVMBDP0qrC90Un-49" value="" style="ellipse;whiteSpace=wrap;html=1;strokeWidth=2;" vertex="1" parent="1">
          <mxGeometry x="994.5" y="790" width="49" height="45" as="geometry" />
        </mxCell>
        <mxCell id="Tix6R_WVMBDP0qrC90Un-51" value="" style="edgeStyle=orthogonalEdgeStyle;rounded=0;orthogonalLoop=1;jettySize=auto;html=1;" edge="1" parent="1" source="Tix6R_WVMBDP0qrC90Un-52">
          <mxGeometry relative="1" as="geometry">
            <mxPoint x="385" y="1090" as="targetPoint" />
          </mxGeometry>
        </mxCell>
        <mxCell id="Tix6R_WVMBDP0qrC90Un-52" value="Client enter to the&lt;div&gt;SLI app&lt;/div&gt;" style="rounded=1;whiteSpace=wrap;html=1;" vertex="1" parent="1">
          <mxGeometry x="165" y="1060" width="120" height="60" as="geometry" />
        </mxCell>
        <mxCell id="Tix6R_WVMBDP0qrC90Un-53" value="" style="edgeStyle=orthogonalEdgeStyle;rounded=0;orthogonalLoop=1;jettySize=auto;html=1;" edge="1" parent="1" source="Tix6R_WVMBDP0qrC90Un-54" target="Tix6R_WVMBDP0qrC90Un-56">
          <mxGeometry relative="1" as="geometry" />
        </mxCell>
        <mxCell id="Tix6R_WVMBDP0qrC90Un-54" value="" style="strokeWidth=2;html=1;shape=mxgraph.flowchart.start_2;whiteSpace=wrap;" vertex="1" parent="1">
          <mxGeometry x="385" y="1072.5" width="40" height="35" as="geometry" />
        </mxCell>
        <mxCell id="Tix6R_WVMBDP0qrC90Un-55" value="" style="edgeStyle=orthogonalEdgeStyle;rounded=0;orthogonalLoop=1;jettySize=auto;html=1;" edge="1" parent="1" source="Tix6R_WVMBDP0qrC90Un-56" target="Tix6R_WVMBDP0qrC90Un-61">
          <mxGeometry relative="1" as="geometry" />
        </mxCell>
        <mxCell id="Tix6R_WVMBDP0qrC90Un-56" value="Select an option from the menu&amp;nbsp;&lt;br&gt;=int" style="whiteSpace=wrap;html=1;strokeWidth=2;" vertex="1" parent="1">
          <mxGeometry x="345" y="1180" width="120" height="60" as="geometry" />
        </mxCell>
        <mxCell id="Tix6R_WVMBDP0qrC90Un-57" value="" style="edgeStyle=orthogonalEdgeStyle;rounded=0;orthogonalLoop=1;jettySize=auto;html=1;" edge="1" parent="1" source="Tix6R_WVMBDP0qrC90Un-61" target="Tix6R_WVMBDP0qrC90Un-62">
          <mxGeometry relative="1" as="geometry" />
        </mxCell>
        <mxCell id="Tix6R_WVMBDP0qrC90Un-58" value="No" style="edgeLabel;html=1;align=center;verticalAlign=middle;resizable=0;points=[];" connectable="0" vertex="1" parent="Tix6R_WVMBDP0qrC90Un-57">
          <mxGeometry x="-0.0519" y="-3" relative="1" as="geometry">
            <mxPoint y="1" as="offset" />
          </mxGeometry>
        </mxCell>
        <mxCell id="Tix6R_WVMBDP0qrC90Un-59" value="" style="edgeStyle=orthogonalEdgeStyle;rounded=0;orthogonalLoop=1;jettySize=auto;html=1;" edge="1" parent="1" source="Tix6R_WVMBDP0qrC90Un-61" target="Tix6R_WVMBDP0qrC90Un-65">
          <mxGeometry relative="1" as="geometry" />
        </mxCell>
        <mxCell id="Tix6R_WVMBDP0qrC90Un-60" value="Yes" style="edgeLabel;html=1;align=center;verticalAlign=middle;resizable=0;points=[];" connectable="0" vertex="1" parent="Tix6R_WVMBDP0qrC90Un-59">
          <mxGeometry x="-0.1814" y="-2" relative="1" as="geometry">
            <mxPoint as="offset" />
          </mxGeometry>
        </mxCell>
        <mxCell id="Tix6R_WVMBDP0qrC90Un-61" value="Correct selection" style="rhombus;whiteSpace=wrap;html=1;strokeWidth=2;" vertex="1" parent="1">
          <mxGeometry x="350" y="1290" width="110" height="115" as="geometry" />
        </mxCell>
        <mxCell id="Tix6R_WVMBDP0qrC90Un-62" value="Invalid option" style="whiteSpace=wrap;html=1;strokeWidth=2;" vertex="1" parent="1">
          <mxGeometry x="595" y="1317.5" width="120" height="60" as="geometry" />
        </mxCell>
        <mxCell id="Tix6R_WVMBDP0qrC90Un-63" value="" style="endArrow=classic;html=1;rounded=0;exitX=0.417;exitY=0.042;exitDx=0;exitDy=0;exitPerimeter=0;entryX=1;entryY=0.5;entryDx=0;entryDy=0;" edge="1" parent="1" source="Tix6R_WVMBDP0qrC90Un-62" target="Tix6R_WVMBDP0qrC90Un-56">
          <mxGeometry width="50" height="50" relative="1" as="geometry">
            <mxPoint x="655" y="1317.5" as="sourcePoint" />
            <mxPoint x="705" y="1267.5" as="targetPoint" />
            <Array as="points">
              <mxPoint x="645" y="1210" />
            </Array>
          </mxGeometry>
        </mxCell>
        <mxCell id="Tix6R_WVMBDP0qrC90Un-64" value="" style="edgeStyle=orthogonalEdgeStyle;rounded=0;orthogonalLoop=1;jettySize=auto;html=1;" edge="1" parent="1" source="Tix6R_WVMBDP0qrC90Un-65" target="Tix6R_WVMBDP0qrC90Un-71">
          <mxGeometry relative="1" as="geometry" />
        </mxCell>
        <mxCell id="Tix6R_WVMBDP0qrC90Un-65" value="Select a&amp;nbsp; category" style="rounded=1;whiteSpace=wrap;html=1;strokeWidth=2;" vertex="1" parent="1">
          <mxGeometry x="345" y="1460" width="120" height="60" as="geometry" />
        </mxCell>
        <mxCell id="Tix6R_WVMBDP0qrC90Un-66" value="&lt;font style=&quot;font-size: 18px;&quot;&gt;Tird activity: Add product to cart&lt;/font&gt;" style="whiteSpace=wrap;html=1;" vertex="1" parent="1">
          <mxGeometry x="44" y="980" width="330" height="60" as="geometry" />
        </mxCell>
        <mxCell id="Tix6R_WVMBDP0qrC90Un-67" value="" style="edgeStyle=orthogonalEdgeStyle;rounded=0;orthogonalLoop=1;jettySize=auto;html=1;" edge="1" parent="1" source="Tix6R_WVMBDP0qrC90Un-71" target="Tix6R_WVMBDP0qrC90Un-72">
          <mxGeometry relative="1" as="geometry" />
        </mxCell>
        <mxCell id="Tix6R_WVMBDP0qrC90Un-68" value="no" style="edgeLabel;html=1;align=center;verticalAlign=middle;resizable=0;points=[];" connectable="0" vertex="1" parent="Tix6R_WVMBDP0qrC90Un-67">
          <mxGeometry x="0.0727" y="-3" relative="1" as="geometry">
            <mxPoint as="offset" />
          </mxGeometry>
        </mxCell>
        <mxCell id="Tix6R_WVMBDP0qrC90Un-69" value="" style="edgeStyle=orthogonalEdgeStyle;rounded=0;orthogonalLoop=1;jettySize=auto;html=1;" edge="1" parent="1" source="Tix6R_WVMBDP0qrC90Un-71" target="Tix6R_WVMBDP0qrC90Un-75">
          <mxGeometry relative="1" as="geometry" />
        </mxCell>
        <mxCell id="Tix6R_WVMBDP0qrC90Un-70" value="yes" style="edgeLabel;html=1;align=center;verticalAlign=middle;resizable=0;points=[];" connectable="0" vertex="1" parent="Tix6R_WVMBDP0qrC90Un-69">
          <mxGeometry x="-0.0791" y="2" relative="1" as="geometry">
            <mxPoint y="1" as="offset" />
          </mxGeometry>
        </mxCell>
        <mxCell id="Tix6R_WVMBDP0qrC90Un-71" value="Correct selection" style="rhombus;whiteSpace=wrap;html=1;strokeWidth=2;" vertex="1" parent="1">
          <mxGeometry x="149" y="1432.5" width="110" height="115" as="geometry" />
        </mxCell>
        <mxCell id="Tix6R_WVMBDP0qrC90Un-72" value="Invalid option" style="whiteSpace=wrap;html=1;strokeWidth=2;" vertex="1" parent="1">
          <mxGeometry x="144" y="1317.5" width="120" height="60" as="geometry" />
        </mxCell>
        <mxCell id="Tix6R_WVMBDP0qrC90Un-73" value="" style="endArrow=classic;html=1;rounded=0;exitX=0.5;exitY=0;exitDx=0;exitDy=0;entryX=-0.025;entryY=0.4;entryDx=0;entryDy=0;entryPerimeter=0;" edge="1" parent="1" source="Tix6R_WVMBDP0qrC90Un-72" target="Tix6R_WVMBDP0qrC90Un-56">
          <mxGeometry width="50" height="50" relative="1" as="geometry">
            <mxPoint x="335" y="1380" as="sourcePoint" />
            <mxPoint x="385" y="1330" as="targetPoint" />
            <Array as="points">
              <mxPoint x="205" y="1204" />
            </Array>
          </mxGeometry>
        </mxCell>
        <mxCell id="Tix6R_WVMBDP0qrC90Un-78" value="" style="edgeStyle=orthogonalEdgeStyle;rounded=0;orthogonalLoop=1;jettySize=auto;html=1;" edge="1" parent="1" source="Tix6R_WVMBDP0qrC90Un-75" target="Tix6R_WVMBDP0qrC90Un-77">
          <mxGeometry relative="1" as="geometry" />
        </mxCell>
        <mxCell id="Tix6R_WVMBDP0qrC90Un-75" value="Select product number" style="whiteSpace=wrap;html=1;strokeWidth=2;" vertex="1" parent="1">
          <mxGeometry x="144" y="1625" width="120" height="60" as="geometry" />
        </mxCell>
        <mxCell id="Tix6R_WVMBDP0qrC90Un-83" value="" style="edgeStyle=orthogonalEdgeStyle;rounded=0;orthogonalLoop=1;jettySize=auto;html=1;" edge="1" parent="1" source="Tix6R_WVMBDP0qrC90Un-77" target="Tix6R_WVMBDP0qrC90Un-82">
          <mxGeometry relative="1" as="geometry" />
        </mxCell>
        <mxCell id="Tix6R_WVMBDP0qrC90Un-77" value="Correct&amp;nbsp;&lt;div&gt;number&lt;/div&gt;" style="rhombus;whiteSpace=wrap;html=1;strokeWidth=2;" vertex="1" parent="1">
          <mxGeometry x="159" y="1720" width="90" height="90" as="geometry" />
        </mxCell>
        <mxCell id="Tix6R_WVMBDP0qrC90Un-79" value="" style="endArrow=classic;html=1;rounded=0;exitX=0;exitY=0.5;exitDx=0;exitDy=0;entryX=0;entryY=0.5;entryDx=0;entryDy=0;" edge="1" parent="1" source="Tix6R_WVMBDP0qrC90Un-77" target="Tix6R_WVMBDP0qrC90Un-72">
          <mxGeometry width="50" height="50" relative="1" as="geometry">
            <mxPoint x="74" y="1770" as="sourcePoint" />
            <mxPoint x="64" y="1340" as="targetPoint" />
            <Array as="points">
              <mxPoint x="64" y="1770" />
              <mxPoint x="64" y="1348" />
            </Array>
          </mxGeometry>
        </mxCell>
        <mxCell id="Tix6R_WVMBDP0qrC90Un-80" value="no" style="edgeLabel;html=1;align=center;verticalAlign=middle;resizable=0;points=[];" connectable="0" vertex="1" parent="Tix6R_WVMBDP0qrC90Un-79">
          <mxGeometry x="-0.7209" y="4" relative="1" as="geometry">
            <mxPoint as="offset" />
          </mxGeometry>
        </mxCell>
        <mxCell id="Tix6R_WVMBDP0qrC90Un-87" value="" style="edgeStyle=orthogonalEdgeStyle;rounded=0;orthogonalLoop=1;jettySize=auto;html=1;" edge="1" parent="1" source="Tix6R_WVMBDP0qrC90Un-82" target="Tix6R_WVMBDP0qrC90Un-86">
          <mxGeometry relative="1" as="geometry" />
        </mxCell>
        <mxCell id="Tix6R_WVMBDP0qrC90Un-82" value="Product added to&amp;nbsp;&lt;div&gt;the cart&lt;div&gt;&lt;br&gt;&lt;/div&gt;&lt;/div&gt;" style="whiteSpace=wrap;html=1;strokeWidth=2;" vertex="1" parent="1">
          <mxGeometry x="350" y="1735" width="120" height="60" as="geometry" />
        </mxCell>
        <mxCell id="Tix6R_WVMBDP0qrC90Un-84" value="Yes" style="text;html=1;align=center;verticalAlign=middle;resizable=0;points=[];autosize=1;strokeColor=none;fillColor=none;" vertex="1" parent="1">
          <mxGeometry x="264" y="1748" width="40" height="30" as="geometry" />
        </mxCell>
        <mxCell id="Tix6R_WVMBDP0qrC90Un-89" value="" style="edgeStyle=orthogonalEdgeStyle;rounded=0;orthogonalLoop=1;jettySize=auto;html=1;" edge="1" parent="1" source="Tix6R_WVMBDP0qrC90Un-86" target="Tix6R_WVMBDP0qrC90Un-88">
          <mxGeometry relative="1" as="geometry" />
        </mxCell>
        <mxCell id="Tix6R_WVMBDP0qrC90Un-86" value="" style="ellipse;whiteSpace=wrap;html=1;strokeWidth=2;" vertex="1" parent="1">
          <mxGeometry x="558" y="1737.5" width="46" height="55" as="geometry" />
        </mxCell>
        <mxCell id="Tix6R_WVMBDP0qrC90Un-88" value="View of the full cart" style="whiteSpace=wrap;html=1;strokeWidth=2;" vertex="1" parent="1">
          <mxGeometry x="664" y="1742.5" width="120" height="45" as="geometry" />
        </mxCell>
        <mxCell id="Tix6R_WVMBDP0qrC90Un-90" value="" style="edgeStyle=orthogonalEdgeStyle;rounded=0;orthogonalLoop=1;jettySize=auto;html=1;" edge="1" parent="1" source="Tix6R_WVMBDP0qrC90Un-91">
          <mxGeometry relative="1" as="geometry">
            <mxPoint x="1211" y="1090" as="targetPoint" />
          </mxGeometry>
        </mxCell>
        <mxCell id="Tix6R_WVMBDP0qrC90Un-91" value="Client enter to the&lt;div&gt;SLI app&lt;/div&gt;" style="rounded=1;whiteSpace=wrap;html=1;" vertex="1" parent="1">
          <mxGeometry x="991" y="1060" width="120" height="60" as="geometry" />
        </mxCell>
        <mxCell id="Tix6R_WVMBDP0qrC90Un-92" value="" style="edgeStyle=orthogonalEdgeStyle;rounded=0;orthogonalLoop=1;jettySize=auto;html=1;" edge="1" parent="1" source="Tix6R_WVMBDP0qrC90Un-93" target="Tix6R_WVMBDP0qrC90Un-95">
          <mxGeometry relative="1" as="geometry" />
        </mxCell>
        <mxCell id="Tix6R_WVMBDP0qrC90Un-93" value="" style="strokeWidth=2;html=1;shape=mxgraph.flowchart.start_2;whiteSpace=wrap;" vertex="1" parent="1">
          <mxGeometry x="1211" y="1072.5" width="40" height="35" as="geometry" />
        </mxCell>
        <mxCell id="Tix6R_WVMBDP0qrC90Un-94" value="" style="edgeStyle=orthogonalEdgeStyle;rounded=0;orthogonalLoop=1;jettySize=auto;html=1;" edge="1" parent="1" source="Tix6R_WVMBDP0qrC90Un-95" target="Tix6R_WVMBDP0qrC90Un-100">
          <mxGeometry relative="1" as="geometry" />
        </mxCell>
        <mxCell id="Tix6R_WVMBDP0qrC90Un-95" value="Select an option from the menu&amp;nbsp;&lt;br&gt;=int" style="whiteSpace=wrap;html=1;strokeWidth=2;" vertex="1" parent="1">
          <mxGeometry x="1171" y="1180" width="120" height="60" as="geometry" />
        </mxCell>
        <mxCell id="Tix6R_WVMBDP0qrC90Un-96" value="" style="edgeStyle=orthogonalEdgeStyle;rounded=0;orthogonalLoop=1;jettySize=auto;html=1;" edge="1" parent="1" source="Tix6R_WVMBDP0qrC90Un-100" target="Tix6R_WVMBDP0qrC90Un-101">
          <mxGeometry relative="1" as="geometry" />
        </mxCell>
        <mxCell id="Tix6R_WVMBDP0qrC90Un-97" value="No" style="edgeLabel;html=1;align=center;verticalAlign=middle;resizable=0;points=[];" connectable="0" vertex="1" parent="Tix6R_WVMBDP0qrC90Un-96">
          <mxGeometry x="-0.0519" y="-3" relative="1" as="geometry">
            <mxPoint y="1" as="offset" />
          </mxGeometry>
        </mxCell>
        <mxCell id="Tix6R_WVMBDP0qrC90Un-98" value="" style="edgeStyle=orthogonalEdgeStyle;rounded=0;orthogonalLoop=1;jettySize=auto;html=1;" edge="1" parent="1" source="Tix6R_WVMBDP0qrC90Un-100" target="Tix6R_WVMBDP0qrC90Un-104">
          <mxGeometry relative="1" as="geometry" />
        </mxCell>
        <mxCell id="Tix6R_WVMBDP0qrC90Un-99" value="Yes" style="edgeLabel;html=1;align=center;verticalAlign=middle;resizable=0;points=[];" connectable="0" vertex="1" parent="Tix6R_WVMBDP0qrC90Un-98">
          <mxGeometry x="-0.1814" y="-2" relative="1" as="geometry">
            <mxPoint as="offset" />
          </mxGeometry>
        </mxCell>
        <mxCell id="Tix6R_WVMBDP0qrC90Un-100" value="Correct selection" style="rhombus;whiteSpace=wrap;html=1;strokeWidth=2;" vertex="1" parent="1">
          <mxGeometry x="1176" y="1290" width="110" height="115" as="geometry" />
        </mxCell>
        <mxCell id="Tix6R_WVMBDP0qrC90Un-101" value="Invalid option" style="whiteSpace=wrap;html=1;strokeWidth=2;" vertex="1" parent="1">
          <mxGeometry x="1421" y="1317.5" width="120" height="60" as="geometry" />
        </mxCell>
        <mxCell id="Tix6R_WVMBDP0qrC90Un-102" value="" style="endArrow=classic;html=1;rounded=0;exitX=0.417;exitY=0.042;exitDx=0;exitDy=0;exitPerimeter=0;entryX=1;entryY=0.5;entryDx=0;entryDy=0;" edge="1" parent="1" source="Tix6R_WVMBDP0qrC90Un-101" target="Tix6R_WVMBDP0qrC90Un-95">
          <mxGeometry width="50" height="50" relative="1" as="geometry">
            <mxPoint x="1481" y="1317.5" as="sourcePoint" />
            <mxPoint x="1531" y="1267.5" as="targetPoint" />
            <Array as="points">
              <mxPoint x="1471" y="1210" />
            </Array>
          </mxGeometry>
        </mxCell>
        <mxCell id="Tix6R_WVMBDP0qrC90Un-103" value="" style="edgeStyle=orthogonalEdgeStyle;rounded=0;orthogonalLoop=1;jettySize=auto;html=1;" edge="1" parent="1" source="Tix6R_WVMBDP0qrC90Un-104" target="Tix6R_WVMBDP0qrC90Un-110">
          <mxGeometry relative="1" as="geometry" />
        </mxCell>
        <mxCell id="Tix6R_WVMBDP0qrC90Un-104" value="Request the info&lt;div&gt;for delivery&amp;nbsp;&lt;/div&gt;" style="rounded=1;whiteSpace=wrap;html=1;strokeWidth=2;" vertex="1" parent="1">
          <mxGeometry x="1171" y="1460" width="120" height="60" as="geometry" />
        </mxCell>
        <mxCell id="Tix6R_WVMBDP0qrC90Un-105" value="&lt;font style=&quot;font-size: 18px;&quot;&gt;Tird activity: Delivery - Checkout&lt;/font&gt;" style="whiteSpace=wrap;html=1;" vertex="1" parent="1">
          <mxGeometry x="870" y="980" width="330" height="60" as="geometry" />
        </mxCell>
        <mxCell id="Tix6R_WVMBDP0qrC90Un-106" value="" style="edgeStyle=orthogonalEdgeStyle;rounded=0;orthogonalLoop=1;jettySize=auto;html=1;" edge="1" parent="1" source="Tix6R_WVMBDP0qrC90Un-110" target="Tix6R_WVMBDP0qrC90Un-111">
          <mxGeometry relative="1" as="geometry" />
        </mxCell>
        <mxCell id="Tix6R_WVMBDP0qrC90Un-107" value="no" style="edgeLabel;html=1;align=center;verticalAlign=middle;resizable=0;points=[];" connectable="0" vertex="1" parent="Tix6R_WVMBDP0qrC90Un-106">
          <mxGeometry x="0.0727" y="-3" relative="1" as="geometry">
            <mxPoint as="offset" />
          </mxGeometry>
        </mxCell>
        <mxCell id="Tix6R_WVMBDP0qrC90Un-108" value="" style="edgeStyle=orthogonalEdgeStyle;rounded=0;orthogonalLoop=1;jettySize=auto;html=1;" edge="1" parent="1" source="Tix6R_WVMBDP0qrC90Un-110" target="Tix6R_WVMBDP0qrC90Un-114">
          <mxGeometry relative="1" as="geometry" />
        </mxCell>
        <mxCell id="Tix6R_WVMBDP0qrC90Un-109" value="yes" style="edgeLabel;html=1;align=center;verticalAlign=middle;resizable=0;points=[];" connectable="0" vertex="1" parent="Tix6R_WVMBDP0qrC90Un-108">
          <mxGeometry x="-0.0791" y="2" relative="1" as="geometry">
            <mxPoint y="1" as="offset" />
          </mxGeometry>
        </mxCell>
        <mxCell id="Tix6R_WVMBDP0qrC90Un-110" value="Correct selection" style="rhombus;whiteSpace=wrap;html=1;strokeWidth=2;" vertex="1" parent="1">
          <mxGeometry x="975" y="1432.5" width="110" height="115" as="geometry" />
        </mxCell>
        <mxCell id="Tix6R_WVMBDP0qrC90Un-111" value="Invalid option" style="whiteSpace=wrap;html=1;strokeWidth=2;" vertex="1" parent="1">
          <mxGeometry x="970" y="1317.5" width="120" height="60" as="geometry" />
        </mxCell>
        <mxCell id="Tix6R_WVMBDP0qrC90Un-112" value="" style="endArrow=classic;html=1;rounded=0;exitX=0.5;exitY=0;exitDx=0;exitDy=0;entryX=-0.025;entryY=0.4;entryDx=0;entryDy=0;entryPerimeter=0;" edge="1" parent="1" source="Tix6R_WVMBDP0qrC90Un-111" target="Tix6R_WVMBDP0qrC90Un-95">
          <mxGeometry width="50" height="50" relative="1" as="geometry">
            <mxPoint x="1161" y="1380" as="sourcePoint" />
            <mxPoint x="1211" y="1330" as="targetPoint" />
            <Array as="points">
              <mxPoint x="1031" y="1204" />
            </Array>
          </mxGeometry>
        </mxCell>
        <mxCell id="Tix6R_WVMBDP0qrC90Un-113" value="" style="edgeStyle=orthogonalEdgeStyle;rounded=0;orthogonalLoop=1;jettySize=auto;html=1;" edge="1" parent="1" source="Tix6R_WVMBDP0qrC90Un-114">
          <mxGeometry relative="1" as="geometry">
            <mxPoint x="1030.0476190476193" y="1720.0476190476193" as="targetPoint" />
          </mxGeometry>
        </mxCell>
        <mxCell id="Tix6R_WVMBDP0qrC90Un-114" value="Checkout complete" style="whiteSpace=wrap;html=1;strokeWidth=2;" vertex="1" parent="1">
          <mxGeometry x="970" y="1625" width="120" height="60" as="geometry" />
        </mxCell>
        <mxCell id="Tix6R_WVMBDP0qrC90Un-123" value="" style="ellipse;whiteSpace=wrap;html=1;strokeWidth=2;" vertex="1" parent="1">
          <mxGeometry x="1007" y="1720" width="46" height="55" as="geometry" />
        </mxCell>
      </root>
    </mxGraphModel>
  </diagram>
</mxfile>
